# xmcd
#
# Track frame offsets:
#	150
#	20908
#	41226
#	65835
#	87289
#	106557
#	125957
#	145245
#	163102
#	182784
#	198274
#
# Disc length: 3065 seconds
#
# Revision: 1
# Processed by: cddbd v1.5.2PL0 Copyright (c) Steve Scherf et al.
# Submitted via: audiograbber 1.83.01
#
DISCID=a40bf70b
DTITLE=The Wild Reeds - The World We Built
DYEAR=2017
DGENRE=Folk-Rock
TTITLE0=Only Songs
TTITLE1=Fall to Sleep
TTITLE2=Everything Looks Better (In Hindsight)
TTITLE3=Fix You Up
TTITLE4=Patience
TTITLE5=Not an Option
TTITLE6=Capable
TTITLE7=Back to Earth
TTITLE8=Catch and Release
TTITLE9=The World We Built
TTITLE10=Fruition
EXTD=
EXTT0=
EXTT1=
EXTT2=
EXTT3=
EXTT4=
EXTT5=
EXTT6=
EXTT7=
EXTT8=
EXTT9=
EXTT10=
PLAYORDER=
